<?xml version="1.0" encoding="UTF-8"?>
<svg id="uuid-cac6ce25-1780-46d6-9b71-6c01b683700c" data-name="Capa 2" xmlns="http://www.w3.org/2000/svg" viewBox="0 0 299.33 279.21">
  <defs>
    <style>
      .uuid-f399f41b-ba02-495f-92c9-75012f1e2c49 {
        fill: #0071b9;
      }

      .uuid-ba7e9404-2c25-4116-bdd5-80adb40572fa {
        fill: #e0262b;
      }

      .uuid-bea65dac-7585-4bb5-a19f-bf9a33dd7421 {
        fill: #feca07;
      }

      .uuid-bbf2f27d-65f0-49de-b070-10f7b9366d48 {
        fill: #fdfdfd;
      }

      .uuid-754ffd6c-01e4-4f67-94c5-95d1565dc089 {
        fill: #016db1;
      }
    </style>
  </defs>
  <g id="uuid-2ef5a8ad-117a-4f23-8743-586268c9ddc3" data-name="Capa 1">
    <g id="uuid-b15bcfcb-dfcb-4486-b088-c98424fa6078" data-name="Objeto generativo">
      <g>
        <polygon points="298.09 215.5 .28 215.51 .22 96.92 16.18 81.32 29.42 68.37 48.62 49.64 65.34 33.23 78.84 20.04 133.64 20.06 133.68 .04 171.14 0 171.17 20.04 219.67 20.06 237.79 37.88 256.95 56.66 278.19 77.29 298.17 96.94 298.09 215.5"/>
        <rect class="uuid-ba7e9404-2c25-4116-bdd5-80adb40572fa" x="20.06" y="116.52" width="118.51" height="79.42"/>
        <rect class="uuid-bbf2f27d-65f0-49de-b070-10f7b9366d48" x="159.68" y="116.53" width="118.51" height="79.4"/>
        <path class="uuid-754ffd6c-01e4-4f67-94c5-95d1565dc089" d="M268.82,92.49c1.65,1.63,3.32,2.67,4.56,4.52l-116.47.04-20.46-20.19-23.1-22.65-14.61-14.42h116.4s10.71,10.51,10.71,10.51l18.95,18.54,24.02,23.66Z"/>
        <polygon class="uuid-bea65dac-7585-4bb5-a19f-bf9a33dd7421" points="25.16 97.01 37.03 85.14 53.83 68.8 71.04 52.03 78.87 44.42 99.39 64.66 122 86.94 132.26 97.01 25.16 97.01"/>
      </g>
      <g>
        <path class="uuid-f399f41b-ba02-495f-92c9-75012f1e2c49" d="M8.05,230.19v9.91h12.12v-9.91h8.05v26.92h-8.05v-10.5h-12.12v10.5H0v-26.92h8.05Z"/>
        <path class="uuid-f399f41b-ba02-495f-92c9-75012f1e2c49" d="M63,243.65c0,7.7-5.33,13.82-15.12,13.82s-15.16-6.55-15.16-13.82c0-6.51,4.22-13.82,15.24-13.82,9.63,0,15.04,6.08,15.04,13.82ZM40.93,243.65c0,4.11,2.65,6.91,6.95,6.91s6.91-2.8,6.91-6.91-2.57-6.91-6.95-6.91-6.91,2.72-6.91,6.91Z"/>
        <path class="uuid-f399f41b-ba02-495f-92c9-75012f1e2c49" d="M74.8,230.19l8.21,10.11,8.25-10.11h7.3v26.92h-8.05v-15.59l-7.26,9.04h-.63l-7.3-9.04v15.59h-7.82v-26.92h7.3Z"/>
        <path class="uuid-f399f41b-ba02-495f-92c9-75012f1e2c49" d="M124.06,230.19v5.41h-11.76v4.93h11.21v5.41h-11.21v5.76h12.08v5.41h-20.13v-26.92h19.82Z"/>
        <path class="uuid-f399f41b-ba02-495f-92c9-75012f1e2c49" d="M153.62,231.85v7.18c-3.12-2.05-5.72-2.92-8.72-2.92-5.84,0-8.61,3.59-8.61,7.66s3.04,7.42,8.41,7.42c3.12,0,6.08-.99,9.04-2.92v6.83c-2.96,1.58-6.39,2.37-10.54,2.37-9.2,0-15.12-5.45-15.12-13.82,0-8.84,6.36-13.82,15.24-13.82,3.2,0,6.47.51,10.3,2.01Z"/>
        <path class="uuid-f399f41b-ba02-495f-92c9-75012f1e2c49" d="M178.45,230.19v5.41h-11.76v4.93h11.21v5.41h-11.21v5.76h12.08v5.41h-20.13v-26.92h19.82Z"/>
        <path class="uuid-f399f41b-ba02-495f-92c9-75012f1e2c49" d="M190.8,230.19l13.89,15v-15h7.97v26.92h-7.18l-13.86-15v15h-7.97v-26.92h7.15Z"/>
        <path class="uuid-f399f41b-ba02-495f-92c9-75012f1e2c49" d="M243.85,230.19v6.51h-9.79v20.41h-8.05v-20.41h-9.79v-6.51h27.63Z"/>
        <path class="uuid-f399f41b-ba02-495f-92c9-75012f1e2c49" d="M267.21,230.19v5.41h-11.76v4.93h11.21v5.41h-11.21v5.76h12.08v5.41h-20.13v-26.92h19.82Z"/>
        <path class="uuid-f399f41b-ba02-495f-92c9-75012f1e2c49" d="M285.29,230.19c6.75,0,10.26,3.32,10.26,8.41,0,2.88-1.38,5.29-4.38,6.67,1.74.95,2.88,2.45,4.14,5.25l2.96,6.59h-8.65l-2.61-5.84c-1.78-4.11-3-4.66-5.53-4.66h-1.03v10.5h-8.05v-26.92h12.87ZM280.47,241.84h3c2.49,0,3.87-.75,3.87-3.12,0-2.09-1.14-3.35-4.03-3.35h-2.84v6.47Z"/>
      </g>
      <g>
        <path class="uuid-ba7e9404-2c25-4116-bdd5-80adb40572fa" d="M131.85,267.91v2.83c-1.27-.91-2.46-1.37-3.53-1.37-.93,0-1.28.4-1.28.9,0,.53.42.81,1.74,1.42,1.76.83,3.59,1.71,3.59,3.88s-1.86,3.64-4.48,3.64c-1.39,0-2.87-.37-4.2-.95v-2.95c1.48.98,2.64,1.32,3.64,1.32,1.11,0,1.46-.47,1.46-.88,0-.51-.25-.83-1.97-1.58-1.11-.51-3.23-1.42-3.23-3.8,0-1.9,1.41-3.46,4.29-3.46,1.53,0,3.01.42,3.99,1Z"/>
        <path class="uuid-ba7e9404-2c25-4116-bdd5-80adb40572fa" d="M148.99,273.06c0,3.43-2.37,6.15-6.73,6.15s-6.75-2.92-6.75-6.15c0-2.9,1.88-6.15,6.79-6.15,4.29,0,6.7,2.71,6.7,6.15ZM139.16,273.06c0,1.83,1.18,3.08,3.09,3.08s3.08-1.25,3.08-3.08-1.14-3.08-3.09-3.08-3.08,1.21-3.08,3.08Z"/>
        <path class="uuid-ba7e9404-2c25-4116-bdd5-80adb40572fa" d="M157.92,267.07c4.68,0,6.94,2.53,6.94,5.99,0,3.81-2.13,5.99-6.71,5.99h-5.52v-11.99h5.29ZM157.78,276.58c2.36,0,3.43-1.16,3.43-3.45,0-2.43-1.3-3.66-3.48-3.66h-1.51v7.1h1.56Z"/>
        <path class="uuid-ba7e9404-2c25-4116-bdd5-80adb40572fa" d="M172.09,267.07v11.99h-3.59v-11.99h3.59Z"/>
        <path class="uuid-ba7e9404-2c25-4116-bdd5-80adb40572fa" d="M179.51,267.07l3.66,4.5,3.67-4.5h3.25v11.99h-3.59v-6.94l-3.23,4.03h-.28l-3.25-4.03v6.94h-3.48v-11.99h3.25Z"/>
        <path class="uuid-ba7e9404-2c25-4116-bdd5-80adb40572fa" d="M202.22,267.07l5.24,11.99h-3.67l-.97-2.43h-5.17l-.98,2.43h-3.67l5.26-11.99h3.97ZM198.49,274.54h3.5l-1.74-4.38-1.76,4.38Z"/>
        <path class="uuid-ba7e9404-2c25-4116-bdd5-80adb40572fa" d="M220.68,267.81v3.2c-1.39-.91-2.55-1.3-3.88-1.3-2.6,0-3.83,1.6-3.83,3.41s1.35,3.3,3.74,3.3c1.39,0,2.71-.44,4.03-1.3v3.04c-1.32.7-2.85,1.05-4.69,1.05-4.1,0-6.73-2.43-6.73-6.15,0-3.94,2.83-6.15,6.79-6.15,1.42,0,2.88.23,4.59.9Z"/>
        <path class="uuid-754ffd6c-01e4-4f67-94c5-95d1565dc089" d="M238.47,270.6v2.46c-.91-.4-1.81-.49-2.36-.49-1.14,0-2.11.72-2.11,2.06s1,2.11,2.11,2.11c.53,0,1.32-.09,2.5-.53v2.44c-1.12.42-1.92.56-2.95.56-3.99,0-4.9-3.01-4.9-4.59,0-1.48.84-4.54,4.9-4.54.98,0,1.78.12,2.81.51Z"/>
        <path class="uuid-754ffd6c-01e4-4f67-94c5-95d1565dc089" d="M251.39,274.64c0,2.65-1.78,4.57-5.01,4.57s-5.01-1.92-5.01-4.57,1.74-4.55,5.01-4.55,5.01,1.93,5.01,4.55ZM244.62,274.64c0,1.41.63,2.25,1.76,2.25s1.76-.83,1.76-2.25-.63-2.23-1.78-2.23c-1.07,0-1.74.81-1.74,2.23Z"/>
        <path class="uuid-754ffd6c-01e4-4f67-94c5-95d1565dc089" d="M262.31,270.74l-1.14,3.11c-.49-.47-.9-.67-1.42-.67-.98,0-1.49.63-2.04,2.07v3.8h-3.09v-8.81h3.09v2.13c.51-1.27,1.56-2.29,2.76-2.29.6,0,1.07.14,1.85.65Z"/>
        <path class="uuid-754ffd6c-01e4-4f67-94c5-95d1565dc089" d="M274.23,274.64c0,2.65-1.78,4.57-5.01,4.57s-5.01-1.92-5.01-4.57,1.74-4.55,5.01-4.55,5.01,1.93,5.01,4.55ZM267.46,274.64c0,1.41.63,2.25,1.76,2.25s1.76-.83,1.76-2.25-.63-2.23-1.78-2.23c-1.07,0-1.74.81-1.74,2.23Z"/>
        <path class="uuid-754ffd6c-01e4-4f67-94c5-95d1565dc089" d="M286.78,273.66v5.4h-3.09v-4.85c0-1.12-.42-1.71-1.27-1.71-.67,0-1.23.39-1.88,1.39v5.17h-3.09v-8.81h3.09v1.27c.91-1,1.85-1.42,3.09-1.42,2.34,0,3.15,1.55,3.15,3.57Z"/>
        <path class="uuid-754ffd6c-01e4-4f67-94c5-95d1565dc089" d="M298.14,272.85v3.3c0,.49.07.9.42.9.25,0,.42-.09.77-.25v1.81c-1.04.44-1.78.6-2.62.6s-1.3-.3-1.49-.93c-.79.69-1.67.93-2.69.93-1.72,0-2.62-.88-2.62-2.23,0-1.72,1.25-2.3,5.13-3.53v-.09c0-1.02-.56-1.28-1.37-1.28-1.25,0-2.48.6-3.46,1.62v-2.39c1.2-.86,2.62-1.21,4.11-1.21,2.51,0,3.81,1.05,3.81,2.76ZM293.78,277.53c.35,0,.79-.23,1.27-.6v-2.09c-1.18.54-2.11.84-2.11,1.79,0,.56.37.9.84.9Z"/>
      </g>
    </g>
  </g>
</svg>